####
#
# OBJ File Generated by Meshlab
#
####
# Object slider_door.obj
#
# Vertices: 135
# Faces: 258
#
####
mtllib ./slider_door.obj.mtl

vn 0.408248 -0.408248 -0.816497
v 73.732697 -3.419400 -113.177597
vn 0.666667 0.666667 -0.333333
v 73.732697 1.659500 -113.177597
vn -0.408248 0.408248 -0.816497
v -34.108700 1.659500 -113.177597
vn 0.577350 -0.577350 0.577350
v 73.732697 -3.419300 127.641899
vn -0.577350 -0.577350 0.577350
v -34.108700 -3.419300 127.641899
vn -0.577350 0.577350 0.577350
v -34.108700 1.659500 127.641899
vn -0.666667 -0.666667 -0.333333
v -34.108700 -3.419400 -113.177597
vn 0.577350 0.577350 0.577350
v 73.732697 1.659500 127.641899
vn 0.701450 0.126243 0.701449
v 70.610298 -3.345500 -27.230700
vn -0.645358 0.408690 0.645357
v 68.070900 -3.345500 -27.230700
vn -0.701450 0.126243 -0.701449
v 68.070900 -3.345500 -29.770100
vn 0.645358 0.408690 -0.645357
v 70.610298 -3.345500 -29.770100
vn 0.701450 0.126243 0.701449
v 70.610298 -3.345500 -14.533600
vn -0.645358 0.408690 0.645357
v 68.070900 -3.345500 -14.533600
vn -0.701450 0.126243 -0.701449
v 68.070900 -3.345500 -17.073000
vn 0.645358 0.408690 -0.645357
v 70.610298 -3.345500 -17.073000
vn 0.736217 -0.231434 -0.635943
v 70.292900 -7.154570 -29.452702
vn -0.000000 -0.106972 -0.994262
v 69.340599 -7.154503 -29.770103
vn -0.736217 -0.231433 -0.635943
v 68.388298 -7.154562 -29.452702
vn -0.577355 -0.577340 -0.577356
v 68.635201 -7.860000 -29.205799
vn -0.000000 -0.707109 -0.707105
v 69.340599 -8.106900 -29.452700
vn 0.577354 -0.577342 -0.577355
v 70.045998 -7.860000 -29.205799
vn 0.005724 -0.107945 0.994140
v 69.340599 -7.154511 -14.533597
vn 0.736306 -0.231500 0.635816
v 70.292900 -7.154565 -14.850998
vn 0.577611 -0.577597 0.576842
v 70.045998 -7.860000 -15.097900
vn 0.058841 -0.713773 0.697901
v 69.340599 -8.106900 -14.851000
vn -0.743626 -0.237590 0.624957
v 68.394348 -7.311475 -14.857053
vn 0.974606 -0.158339 -0.158339
v 70.610298 -7.154600 -28.500401
vn 0.998003 0.041898 -0.047274
v 70.610298 -5.884900 -28.500401
vn 0.736216 -0.635943 -0.231438
v 70.292900 -8.106900 -28.500401
vn 0.848325 0.374407 0.374385
v 70.407204 -5.884900 -27.230700
vn 0.000000 -0.994263 -0.106965
v 69.340599 -8.424305 -28.500214
vn -0.736217 -0.635942 -0.231438
v 68.388298 -8.106900 -28.500401
vn -0.974607 -0.158339 -0.158337
v 68.070900 -7.154600 -28.500401
vn -0.998004 0.041909 -0.047250
v 68.070900 -5.884900 -28.500401
vn -0.848307 0.374439 0.374394
v 68.274101 -5.884900 -27.230700
vn 0.998003 -0.047268 0.041895
v 70.610291 -7.154614 -27.230562
vn -0.735446 -0.659581 0.155151
v 68.388283 -8.106913 -15.805045
vn -0.728476 0.672620 0.130018
v 68.388298 -6.202310 -25.960739
vn -0.000008 0.707137 0.707077
v 69.340599 -5.567500 -26.913300
vn 0.728486 0.672605 0.130037
v 70.292892 -6.202310 -25.960733
vn 0.000001 -0.987071 0.160285
v 69.340599 -8.424315 -15.805166
vn -0.998005 -0.047232 0.041899
v 68.070915 -7.154626 -27.230019
vn 0.000000 0.994266 0.106938
v 69.340599 -5.884907 -25.960571
vn -0.998049 0.046294 -0.041904
v 68.070915 -7.154633 -17.074253
vn 0.603824 0.786599 -0.129071
v 70.292900 -6.202307 -18.342863
vn 0.998048 0.046306 -0.041907
v 70.610268 -7.154647 -17.075521
vn 0.848280 0.374505 -0.374388
v 70.407204 -5.884900 -17.073000
vn -0.603831 0.786597 -0.129050
v 68.388298 -6.202308 -18.342859
vn -0.848294 0.374462 -0.374400
v 68.274101 -5.884900 -17.073000
vn -0.000001 0.987029 -0.160543
v 69.340599 -5.884904 -18.342880
vn -0.000008 0.707121 -0.707093
v 69.340599 -5.567500 -17.390400
vn 0.974589 -0.158465 0.158323
v 70.610298 -7.154600 -15.803300
vn 0.998001 0.041937 0.047272
v 70.610298 -5.884900 -15.803300
vn 0.733547 -0.655113 0.180933
v 70.292908 -8.106913 -15.805041
vn -0.975784 -0.159218 0.149984
v 68.070900 -7.154600 -15.803300
vn -0.997943 0.041518 0.048849
v 68.070900 -5.884900 -15.803300
vn 0.000000 -0.127075 -0.991893
v 69.340599 -4.615200 -29.770100
vn -0.702547 -0.113392 -0.702546
v 68.388298 -4.615200 -29.452700
vn 0.702547 -0.113392 -0.702546
v 70.292900 -4.615200 -29.452700
vn 0.991893 -0.127075 -0.000000
v 70.610298 -4.615200 -28.500401
vn 0.735060 0.016058 0.677812
v 70.292900 -4.615200 -27.548100
vn 0.000000 0.000000 1.000000
v 69.340599 -4.615200 -27.230700
vn -0.735054 0.016040 0.677818
v 68.388298 -4.615200 -27.548100
vn -0.991893 -0.127075 -0.000000
v 68.070900 -4.615200 -28.500401
vn 0.000000 0.000000 -1.000000
v 69.340599 -4.615200 -17.073000
vn -0.735054 0.016040 -0.677818
v 68.388298 -4.615200 -16.755600
vn 0.735060 0.016058 -0.677812
v 70.292900 -4.615200 -16.755600
vn 0.991893 -0.127075 0.000000
v 70.610298 -4.615200 -15.803300
vn 0.702547 -0.113392 0.702546
v 70.292900 -4.615200 -14.851000
vn 0.000000 -0.127076 0.991893
v 69.340599 -4.615200 -14.533600
vn -0.702900 -0.114346 0.702038
v 68.388298 -4.615200 -14.851000
vn -0.991893 -0.127075 0.000000
v 68.070900 -4.615200 -15.803300
vn 0.645356 -0.408689 0.645359
v 70.610298 1.399400 -27.230700
vn -0.701448 -0.126243 0.701451
v 68.070900 1.399400 -27.230700
vn -0.645357 -0.408689 -0.645359
v 68.070900 1.399400 -29.770100
vn 0.701448 -0.126243 -0.701451
v 70.610298 1.399400 -29.770100
vn 0.645358 -0.408688 0.645358
v 70.610298 1.399400 -14.533600
vn -0.701450 -0.126242 0.701449
v 68.070900 1.399400 -14.533600
vn -0.645357 -0.408689 -0.645359
v 68.070900 1.399400 -17.073000
vn 0.701448 -0.126243 -0.701451
v 70.610298 1.399400 -17.073000
vn 0.698733 0.153452 -0.698731
v 70.292900 5.208518 -29.452702
vn 0.000000 0.250349 -0.968156
v 69.340599 5.208572 -29.770102
vn -0.698733 0.153453 -0.698731
v 68.388298 5.208520 -29.452702
vn -0.577362 0.577363 -0.577326
v 68.635201 5.914000 -29.205799
vn 0.000000 0.707090 -0.707124
v 69.340599 6.160800 -29.452700
vn 0.577362 0.577363 -0.577325
v 70.045998 5.914000 -29.205799
vn 0.000000 0.250353 0.968155
v 69.340599 5.208600 -14.533600
vn 0.698734 0.153453 0.698730
v 70.292900 5.208520 -14.850998
vn 0.577418 0.577599 0.577034
v 70.045998 5.914000 -15.097900
vn 0.000000 0.707254 0.706960
v 69.340599 6.160800 -14.851000
vn -0.577418 0.577600 0.577033
v 68.635201 5.914000 -15.097900
vn -0.698734 0.153454 0.698730
v 68.388298 5.208525 -14.850998
vn 0.698757 0.698716 -0.153411
v 70.292900 6.160802 -28.500237
vn 0.977671 0.148606 -0.148576
v 70.610298 5.208601 -28.500378
vn 0.773673 -0.448025 0.447999
v 70.407204 3.938900 -27.230700
vn 0.000000 0.968160 -0.250331
v 69.340599 6.478302 -28.500368
vn -0.997500 0.066318 -0.024425
v 68.070900 2.669130 -28.500395
vn -0.773659 -0.448073 0.447975
v 68.274101 3.938900 -27.230700
vn -0.977676 0.148592 -0.148563
v 68.070900 5.208602 -28.500374
vn 0.999195 0.028375 0.028351
v 70.610291 5.208635 -25.959469
vn 0.706102 -0.703755 0.078423
v 70.292892 4.256311 -25.960485
vn -0.698759 0.698714 -0.153412
v 68.388290 6.160802 -28.500231
vn 0.000015 -0.980455 0.196742
v 69.340599 3.938906 -25.960903
vn -0.000018 -0.707078 0.707136
v 69.340599 3.621400 -26.913300
vn -0.999197 0.028321 0.028329
v 68.070915 5.208660 -25.957094
vn 0.703988 -0.700393 -0.117688
v 70.292892 4.256290 -18.342880
vn 0.807068 0.570827 0.150987
v 70.292908 6.160808 -15.805017
vn 0.996241 -0.081879 -0.028276
v 70.610291 5.208628 -18.343632
vn -0.706061 -0.703802 0.078369
v 68.388290 4.256350 -25.959717
vn 0.977671 0.148722 0.148465
v 70.610298 5.208600 -15.803323
vn 0.773674 -0.448016 -0.448007
v 70.407204 3.938800 -17.073000
vn -0.996242 -0.081876 -0.028262
v 68.070900 5.208600 -18.342699
vn -0.704019 -0.700365 -0.117672
v 68.388298 4.256300 -18.342699
vn -0.773690 -0.447990 -0.448005
v 68.274101 3.938800 -17.073000
vn -0.000016 -0.989041 -0.147642
v 69.340599 3.938877 -18.343088
vn -0.000018 -0.707125 -0.707089
v 69.340599 3.621400 -17.390400
vn 0.997500 0.066304 0.024438
v 70.610298 2.669131 -15.803301
vn -0.000000 0.982297 0.187332
v 69.340599 6.478313 -15.804758
vn -0.807069 0.570826 0.150987
v 68.388290 6.160807 -15.805018
vn -0.977675 0.148709 0.148453
v 68.070900 5.208600 -15.803323
vn -0.000000 0.090927 -0.995858
v 69.340599 2.669100 -29.770100
vn -0.696809 0.170039 -0.696810
v 68.388298 2.669100 -29.452700
vn 0.696809 0.170039 -0.696810
v 70.292900 2.669100 -29.452700
vn 0.997500 0.066306 -0.024438
v 70.610298 2.669127 -28.500397
vn 0.707955 0.053222 0.704250
v 70.292900 2.669100 -27.548100
vn -0.000005 -0.078010 0.996953
v 69.340599 2.669100 -27.230700
vn -0.707954 0.053251 0.704248
v 68.388298 2.669100 -27.548100
vn -0.000005 -0.078017 -0.996952
v 69.340599 2.669100 -17.073000
vn -0.707955 0.053242 -0.704248
v 68.388298 2.669100 -16.755600
vn 0.707955 0.053213 -0.704250
v 70.292900 2.669100 -16.755600
vn 0.696810 0.170039 0.696809
v 70.292900 2.669100 -14.851000
vn 0.000000 0.090927 0.995858
v 69.340599 2.669126 -14.533601
vn -0.696810 0.170039 0.696808
v 68.388298 2.669100 -14.851000
vn -0.997500 0.066316 0.024425
v 68.070900 2.669120 -15.803305
# 135 vertices, 0 vertices normals


usemtl material_0
vt 790.867493 169.333496
vt 790.867493 126.866501
vt 792.867493 126.866501
f 3/1/3 2/2/2 1/3/1
vt 761.046509 406.151489
vt 763.046509 406.151489
vt 763.046509 448.618408
f 6/4/6 5/5/5 4/6/4
vt 0.289100 46.970200
vt 0.289100 -47.029800
vt 2.289100 -47.029800
f 6/7/6 3/8/3 7/9/7
vt -1.289100 46.970200
vt -1.289100 -47.029800
vt 0.710900 -47.029800
f 4/10/4 1/11/1 2/12/2
vt 792.867493 169.333496
f 1/3/1 7/13/7 3/1/3
vt 761.046509 448.618408
f 4/6/4 8/14/8 6/4/6
vt 2.289100 46.970200
f 7/9/7 5/15/5 6/7/6
vt 0.710900 46.970200
f 2/12/2 8/16/8 4/10/4
vt 39.262901 -10.813000
vt 38.262901 -10.813000
vt 38.262901 -9.813000
f 12/17/12 11/18/11 10/19/10
vt 39.262901 -9.813000
f 12/17/12 10/19/10 9/20/9
vt 39.262901 -5.813000
vt 38.262901 -5.813000
vt 38.262901 -4.813000
f 16/21/16 15/22/15 14/23/14
vt 39.262901 -4.813000
f 16/21/16 14/23/14 13/24/13
vt 38.762901 -2.782500
vt 38.485199 -2.685300
vt 38.387901 -2.407500
f 21/25/21 20/26/20 19/27/19
vt 38.762901 -2.407500
f 21/25/21 19/27/19 18/28/18
vt 39.137901 -2.407500
vt 39.040699 -2.685300
f 17/29/17 22/30/22 21/25/21
f 17/29/17 21/25/21 18/28/18
vt -37.762901 -2.782500
vt -38.040699 -2.685300
vt -38.137901 -2.407500
f 26/31/26 25/32/25 24/33/24
vt -37.762901 -2.407500
f 26/31/26 24/33/24 23/34/23
vt -37.387901 -2.407500
f 27/35/27 26/31/26 23/34/23
vt 3.407500 -10.688000
vt 2.907500 -10.313000
vt 3.407500 -10.313000
f 17/36/17 29/37/29 28/38/28
vt 3.782500 -10.313000
vt 3.685300 -10.590800
f 30/39/30 22/40/22 17/36/17
f 30/39/30 17/36/17 28/38/28
vt 3.407500 -9.813000
vt 3.782500 -9.813000
f 37/41/37 55/42/55 30/39/30
f 37/41/37 30/39/30 28/38/28
vt 2.907500 -9.813000
f 29/37/29 31/43/31 37/41/37
f 29/37/29 37/41/37 28/38/28
vt -37.762901 -10.688000
vt -38.040699 -10.590800
vt -38.137901 -10.313000
f 21/44/21 22/45/22 30/46/30
vt -37.762901 -10.313000
f 21/44/21 30/46/30 32/47/32
vt -37.387901 -10.313000
vt -37.485199 -10.590800
f 33/48/33 20/49/20 21/44/21
f 33/48/33 21/44/21 32/47/32
vt -37.762901 -9.813000
vt -37.387901 -9.813000
f 32/50/32 38/51/38 33/48/33
vt -38.137901 -9.813000
f 30/46/30 55/52/55 32/50/32
vt -2.407500 -10.688000
vt -2.685300 -10.590800
vt -2.782500 -10.313000
f 19/53/19 20/54/20 33/55/33
vt -2.407500 -10.313000
f 19/53/19 33/55/33 34/56/34
vt -1.907500 -10.313000
f 35/57/35 19/53/19 34/56/34
vt -2.407500 -9.813000
vt -1.907500 -9.813000
f 43/58/43 36/59/36 35/57/35
f 43/58/43 35/57/35 34/56/34
vt -2.782500 -9.813000
f 33/55/33 38/60/38 43/58/43
f 33/55/33 43/58/43 34/56/34
vt 3.032500 -9.313000
f 37/41/37 31/43/31 41/61/41
vt 3.407500 -8.813000
vt 3.782500 -9.313000
vt 3.407500 -9.313000
f 47/62/47 55/63/55 37/64/37
f 41/61/41 47/62/47 37/64/37
vt -37.762901 -8.813000
vt -37.387901 -9.313000
vt -37.762901 -9.313000
f 42/65/42 38/66/38 32/67/32
vt -38.137901 -9.313000
f 55/68/55 42/65/42 32/67/32
vt -2.032500 -9.313000
f 39/69/39 36/59/36 43/58/43
vt 38.762901 -9.688000
vt 38.342899 -9.813000
vt 38.387901 -9.313000
f 40/70/40 36/71/36 39/72/39
vt 38.762901 -9.313000
f 40/70/40 39/72/39 44/73/44
vt 39.137901 -9.313000
vt 39.182899 -9.813000
f 41/74/41 31/75/31 40/70/40
f 41/74/41 40/70/40 44/73/44
vt -2.407500 -7.813000
vt -2.032500 -8.313000
vt -2.407500 -8.313000
f 45/76/45 39/77/39 43/78/43
vt -2.782500 -8.313000
f 38/79/38 45/76/45 43/78/43
vt 3.407500 -7.813000
vt 3.032500 -7.813000
vt 3.032500 -7.313000
f 47/80/47 41/81/41 46/82/46
vt -2.032500 -7.313000
vt -2.032500 -7.813000
f 49/83/49 39/84/39 45/76/45
vt 38.762901 -7.813000
vt 38.387901 -7.813000
vt 38.387901 -7.313000
f 44/85/44 39/86/39 49/87/49
vt 38.762901 -7.313000
f 44/85/44 49/87/49 51/88/51
vt 39.137901 -7.313000
vt 39.137901 -7.813000
f 46/89/46 41/90/41 44/85/44
f 46/89/46 44/85/44 51/88/51
vt 3.032500 -6.313000
vt 2.907500 -5.813000
vt 3.407500 -5.813000
f 46/91/46 48/92/48 47/93/47
vt -2.407500 -5.813000
vt -1.907500 -5.813000
vt -2.032500 -6.313000
f 45/94/45 50/95/50 49/96/49
vt 38.762901 -5.938000
vt 39.182899 -5.813000
vt 39.137901 -6.313000
f 52/97/52 48/98/48 46/99/46
vt 38.762901 -6.313000
f 52/97/52 46/99/46 51/100/51
vt 38.387901 -6.313000
vt 38.342899 -5.813000
f 49/101/49 50/102/50 52/97/52
f 49/101/49 52/97/52 51/100/51
vt 2.907500 -5.313000
f 47/93/47 48/92/48 54/103/54
vt 3.407500 -5.313000
f 47/93/47 54/103/54 53/104/53
vt 3.782500 -5.313000
f 55/105/55 47/93/47 53/104/53
vt 3.407500 -4.938000
vt 3.685300 -5.035300
f 24/106/24 25/107/25 55/105/55
f 24/106/24 55/105/55 53/104/53
f 54/103/54 24/106/24 53/104/53
vt -37.762901 -4.938000
vt -37.485199 -5.035300
vt -37.387901 -5.313000
f 26/108/26 27/109/27 38/110/38
vt -37.762901 -5.313000
f 26/108/26 38/110/38 42/111/42
vt -38.137901 -5.313000
vt -38.040699 -5.035300
f 55/112/55 25/113/25 26/108/26
f 55/112/55 26/108/26 42/111/42
vt -2.782500 -5.313000
vt -2.407500 -5.313000
f 45/94/45 38/114/38 56/115/56
vt -1.907500 -5.313000
f 57/116/57 50/95/50 45/94/45
f 57/116/57 45/94/45 56/115/56
vt -2.407500 -4.938000
f 27/117/27 57/116/57 56/115/56
f 38/114/38 27/117/27 56/115/56
vt 38.762901 -1.907500
vt 38.387901 -1.907500
vt 38.387901 -1.407500
f 18/118/18 19/119/19 59/120/59
vt 38.762901 -1.407500
f 18/118/18 59/120/59 58/121/58
vt 39.137901 -1.407500
vt 39.137901 -1.907500
f 60/122/60 17/123/17 18/118/18
f 60/122/60 18/118/18 58/121/58
vt 38.262901 -0.907500
vt 39.262901 -0.907500
f 58/121/58 11/124/11 12/125/12
f 58/121/58 12/125/12 60/122/60
f 58/121/58 59/120/59 11/124/11
vt 2.907500 -10.688000
vt 2.407500 -10.688000
f 29/37/29 17/126/17 60/127/60
vt 2.407500 -10.313000
f 29/37/29 60/127/60 61/128/61
vt 2.407500 -9.938000
f 62/129/62 31/43/31 29/37/29
f 62/129/62 29/37/29 61/128/61
vt 1.907500 -10.813000
vt 1.907500 -9.813000
f 61/128/61 12/130/12 9/131/9
f 61/128/61 9/131/9 62/129/62
f 61/128/61 60/127/60 12/130/12
vt -37.762901 -1.782500
vt -38.182899 -1.907500
vt -38.137901 -1.407500
f 40/132/40 31/133/31 62/134/62
vt -37.762901 -1.407500
f 40/132/40 62/134/62 63/135/63
vt -37.387901 -1.407500
vt -37.342899 -1.907500
f 64/136/64 36/137/36 40/132/40
f 64/136/64 40/132/40 63/135/63
vt -38.262901 -0.907500
vt -37.262901 -0.907500
f 63/135/63 9/138/9 10/139/10
f 63/135/63 10/139/10 64/136/64
f 63/135/63 62/134/62 9/138/9
vt -1.407500 -9.938000
f 35/57/35 36/59/36 64/140/64
vt -1.407500 -10.313000
f 35/57/35 64/140/64 65/141/65
vt -1.407500 -10.688000
vt -1.907500 -10.688000
f 59/142/59 19/143/19 35/57/35
f 59/142/59 35/57/35 65/141/65
vt -0.907500 -9.813000
vt -0.907500 -10.813000
f 65/141/65 10/144/10 11/145/11
f 65/141/65 11/145/11 59/142/59
f 65/141/65 64/140/64 10/144/10
vt 38.762901 -1.782500
vt 38.342899 -1.907500
f 52/146/52 50/147/50 67/120/67
f 52/146/52 67/120/67 66/121/66
vt 39.182899 -1.907500
f 68/122/68 48/148/48 52/146/52
f 68/122/68 52/146/52 66/121/66
f 66/121/66 15/124/15 16/125/16
f 66/121/66 16/125/16 68/122/68
f 66/121/66 67/120/67 15/124/15
vt 2.407500 -5.688000
f 54/103/54 48/92/48 68/149/68
vt 2.407500 -5.313000
f 54/103/54 68/149/68 69/150/69
vt 2.407500 -4.938000
vt 2.907500 -4.938000
f 70/151/70 24/152/24 54/103/54
f 70/151/70 54/103/54 69/150/69
vt 1.907500 -5.813000
vt 1.907500 -4.813000
f 69/150/69 16/153/16 13/154/13
f 69/150/69 13/154/13 70/151/70
f 69/150/69 68/149/68 16/153/16
vt -37.762901 -1.907500
vt -38.137901 -1.907500
f 23/155/23 24/156/24 70/134/70
f 23/155/23 70/134/70 71/135/71
vt -37.387901 -1.907500
f 72/136/72 27/157/27 23/155/23
f 72/136/72 23/155/23 71/135/71
f 71/135/71 13/138/13 14/139/14
f 71/135/71 14/139/14 72/136/72
f 71/135/71 70/134/70 13/138/13
vt -1.907500 -4.938000
vt -1.407500 -4.938000
f 57/116/57 27/158/27 72/159/72
vt -1.407500 -5.313000
f 57/116/57 72/159/72 73/160/73
vt -1.407500 -5.688000
f 67/161/67 50/95/50 57/116/57
f 67/161/67 57/116/57 73/160/73
vt -0.907500 -4.813000
vt -0.907500 -5.813000
f 73/160/73 14/162/14 15/163/15
f 73/160/73 15/163/15 67/161/67
f 73/160/73 72/159/72 14/162/14
f 74/20/74 75/19/75 76/18/76
f 74/20/74 76/18/76 77/17/77
f 78/24/78 79/23/79 80/22/80
f 78/24/78 80/22/80 81/21/81
f 83/28/83 84/27/84 85/26/85
f 83/28/83 85/26/85 86/25/86
f 83/28/83 86/25/86 87/30/87
f 83/28/83 87/30/87 82/29/82
f 88/34/88 133/155/133 89/156/89
f 88/34/88 89/33/89 90/32/90
f 88/34/88 90/32/90 91/31/91
vt -37.485199 -2.685300
f 88/34/88 91/31/91 92/164/92
f 88/34/88 92/164/92 93/35/93
f 88/34/88 93/157/93 133/155/133
f 95/38/95 125/37/125 82/126/82
f 95/38/95 82/36/82 87/40/87
f 95/38/95 87/40/87 94/39/94
f 95/38/95 96/43/96 125/37/125
f 97/47/97 94/46/94 87/45/87
f 97/47/97 87/45/87 86/44/86
f 97/47/97 86/44/86 85/49/85
f 97/47/97 85/49/85 103/48/103
f 100/56/100 103/55/103 85/54/85
f 100/56/100 85/54/85 84/53/84
f 100/56/100 84/143/84 98/57/98
f 100/56/100 98/57/98 99/59/99
f 101/64/101 102/61/102 96/43/96
f 101/64/101 96/43/96 95/41/95
f 101/64/101 95/41/95 94/42/94
vt 3.782500 -8.813000
f 101/64/101 94/63/94 108/165/108
f 119/67/119 94/52/94 97/50/97
f 119/67/119 97/50/97 103/51/103
vt -37.387901 -8.813000
f 119/67/119 103/66/103 120/166/120
vt -38.137901 -8.813000
f 119/67/119 108/167/108 94/68/94
vt -2.407500 -9.313000
f 106/168/106 103/60/103 100/58/100
f 106/168/106 100/58/100 99/59/99
f 106/168/106 99/59/99 110/69/110
vt -2.782500 -8.813000
vt -2.782500 -9.313000
f 106/168/106 120/169/120 103/170/103
f 104/73/104 110/72/110 99/71/99
f 104/73/104 99/71/99 105/70/105
f 104/73/104 105/70/105 96/75/96
f 104/73/104 96/75/96 102/74/102
vt 38.762901 -8.313000
f 104/171/104 102/90/102 116/85/116
f 104/171/104 116/85/116 110/86/110
vt 3.407500 -7.313000
f 109/172/109 107/82/107 102/81/102
f 109/172/109 102/81/102 101/80/101
vt 3.782500 -7.813000
f 109/172/109 101/80/101 108/173/108
f 116/88/116 102/90/102 107/89/107
vt 3.407500 -6.313000
vt 3.782500 -5.813000
f 109/174/109 108/175/108 111/93/111
f 109/174/109 111/93/111 112/92/112
f 109/174/109 112/92/112 107/91/107
vt -2.407500 -6.313000
vt -2.782500 -6.813000
vt -2.407500 -6.813000
f 113/176/113 120/177/120 106/178/106
vt -2.032500 -6.813000
f 113/176/113 106/178/106 110/179/110
f 113/176/113 110/179/110 114/96/114
f 113/176/113 114/96/114 115/95/115
f 113/176/113 115/95/115 121/94/121
vt -2.782500 -5.813000
f 113/176/113 121/94/121 120/180/120
vt 38.387901 -6.813000
f 116/100/116 114/101/114 110/181/110
f 116/100/116 107/99/107 112/98/112
f 116/100/116 112/98/112 117/97/117
f 116/100/116 117/97/117 115/102/115
f 116/100/116 115/102/115 114/101/114
f 111/104/111 118/103/118 112/92/112
f 111/104/111 108/105/108 90/107/90
f 111/104/111 90/107/90 89/106/89
f 111/104/111 89/152/89 118/103/118
f 119/111/119 120/110/120 92/109/92
f 119/111/119 92/109/92 91/108/91
f 119/111/119 91/108/91 90/113/90
f 119/111/119 90/113/90 108/112/108
f 121/115/121 115/95/115 135/116/135
f 121/115/121 135/116/135 93/158/93
vt -2.685300 -5.035300
f 121/115/121 93/117/93 92/182/92
f 121/115/121 92/182/92 120/114/120
f 122/121/122 123/120/123 84/119/84
f 122/121/122 84/119/84 83/118/83
f 122/121/122 83/118/83 82/123/82
f 122/121/122 82/123/82 124/122/124
f 77/125/77 76/124/76 122/121/122
f 124/122/124 77/125/77 122/121/122
f 76/124/76 123/120/123 122/121/122
f 125/128/125 124/127/124 82/126/82
f 125/128/125 96/43/96 126/129/126
f 74/131/74 77/130/77 125/128/125
f 126/129/126 74/131/74 125/128/125
f 77/130/77 124/127/124 125/128/125
f 127/135/127 126/134/126 96/133/96
f 127/135/127 96/133/96 105/132/105
f 127/135/127 105/132/105 99/137/99
f 127/135/127 99/137/99 128/136/128
f 75/139/75 74/138/74 127/135/127
f 128/136/128 75/139/75 127/135/127
f 74/138/74 126/134/126 127/135/127
f 98/141/98 128/140/128 99/59/99
f 98/141/98 84/143/84 123/142/123
f 76/145/76 75/144/75 98/141/98
f 123/142/123 76/145/76 98/141/98
f 75/144/75 128/140/128 98/141/98
f 129/121/129 130/120/130 115/147/115
f 129/121/129 115/147/115 117/146/117
f 129/121/129 117/146/117 112/148/112
f 129/121/129 112/148/112 131/122/131
f 81/125/81 80/124/80 129/121/129
f 131/122/131 81/125/81 129/121/129
f 80/124/80 130/120/130 129/121/129
f 118/150/118 131/149/131 112/92/112
f 118/150/118 89/152/89 132/151/132
f 78/154/78 81/153/81 118/150/118
f 132/151/132 78/154/78 118/150/118
f 81/153/81 131/149/131 118/150/118
f 133/135/133 132/134/132 89/156/89
f 133/135/133 93/157/93 134/136/134
f 79/139/79 78/138/78 133/135/133
f 134/136/134 79/139/79 133/135/133
f 78/138/78 132/134/132 133/135/133
f 135/160/135 134/159/134 93/158/93
f 135/160/135 115/95/115 130/161/130
f 80/163/80 79/162/79 135/160/135
f 130/161/130 80/163/80 135/160/135
f 79/162/79 134/159/134 135/160/135
vt 0.500000 0.500000
f 2/183/2 3/183/3 6/183/6
f 6/183/6 8/183/8 2/183/2
f 4/183/4 5/183/5 7/183/7
f 1/183/1 4/183/4 7/183/7
# 258 faces, 183 coords texture

# End of File
